Coordinates
version=1
nRows=6
nColumns=36
inDegrees=yes

Units are S.I. units (second, meters, Newtons, ...)
If the header above contains a line with 'inDegrees', this indicates whether rotational values are in degrees (yes) or radians (no).

endheader
time	pelvis_tilt	pelvis_list	pelvis_rotation	pelvis_tx	pelvis_ty	pelvis_tz	hip_flexion_r	hip_adduction_r	hip_rotation_r	knee_angle_r	knee_angle_r_beta	ankle_angle_r	subtalar_angle_r	mtp_angle_r	hip_flexion_l	hip_adduction_l	hip_rotation_l	knee_angle_l	knee_angle_l_beta	ankle_angle_l	subtalar_angle_l	mtp_angle_l	lumbar_extension	lumbar_bending	lumbar_rotation	arm_flex_r	arm_add_r	arm_rot_r	elbow_flex_r	pro_sup_r	arm_flex_l	arm_add_l	arm_rot_l	elbow_flex_l	pro_sup_l
     44.98333330	      1.48226325	      6.36638922	    187.65355280	      0.64513547	      1.03837924	      0.81752241	     20.26521789	      6.92664668	     -3.20490884	     28.84096451	      0.50336979	     -4.66336582	    -14.37363055	     -7.49999987	     35.14296434	     -8.18750279	      4.53804327	     57.05026112	      0.99571490	    -12.26667816	    -10.48151707	     -7.49999987	    -15.05547201	      7.33958781	      4.63734498	     17.42684061	    -15.40047876	     -1.00189535	     23.97336264	     82.22589198	     11.77221033	     -8.38592021	      4.14563591	     20.98770027	     82.31121131
     45.00000000	      1.42478475	      7.01872342	    187.34349011	      0.64837186	      1.04219834	      0.81485083	     19.43861328	      7.90755076	     -3.48105433	     28.85991017	      0.50370045	     -5.18414998	    -16.10049806	     -7.49999987	     35.38644731	     -9.25538049	      3.35313038	     52.26180655	      0.91214060	    -13.65726851	    -10.20442800	     -7.49999987	    -15.56478641	      7.83852662	      5.79555157	     19.17138738	    -15.80937628	     -1.61468491	     24.55550291	     83.72961306	     11.75674781	     -7.87813558	      2.83077147	     19.42387494	     83.42267328
     45.01666670	      1.34247982	      7.57708637	    187.05824189	      0.65124780	      1.05067975	      0.81361634	     18.39431111	      8.69126688	     -4.02139729	     28.53821263	      0.49808577	     -5.58157684	    -17.14252664	     -7.49999987	     35.04574491	    -10.15761575	      2.03082189	     46.88459672	      0.81829058	    -14.87523773	     -9.72162166	     -7.49999987	    -16.01353934	      8.28160135	      6.67347255	     20.68996121	    -16.12543193	     -1.81503797	     24.86212362	     85.08242181	     11.76962505	     -7.42080023	      1.51239813	     17.83023227	     84.20533882
     45.03333330	      1.32084289	      8.01863539	    186.81174582	      0.65328032	      1.05777026	      0.81332471	     17.29536525	      9.27262951	     -4.70309743	     28.13988268	      0.49113360	     -5.55981014	    -17.40548534	     -7.49999987	     34.20003148	    -10.90989003	      0.52065981	     40.92592785	      0.71429219	    -16.09932436	     -8.67340051	     -7.49999987	    -16.22345952	      8.65986692	      7.33082131	     21.94081009	    -16.39257252	     -1.37211814	     24.72614070	     85.13969511	     11.69208896	     -7.00893170	      0.88418091	     16.33485796	     83.81187460
     45.05000000	      1.51022548	      8.22616327	    186.70989562	      0.65426690	      1.06189088	      0.81404512	     16.40742054	      9.46415812	     -5.52980996	     27.92958827	      0.48746327	     -4.87218259	    -16.72318669	     -7.49999987	     33.17992679	    -11.32797063	     -1.18216971	     34.60007040	      0.60388515	    -17.56204594	     -6.84327361	     -7.49999987	    -16.12978480	      8.74442666	      7.85541121	     22.70546528	    -16.74413007	     -0.57948592	     24.64540278	     84.95155571	     11.71807007	     -6.55766129	      0.45753735	     14.79894033	     83.27006885
     45.06666670	      1.86475207	      8.48141537	    186.79393664	      0.65487355	      1.06351831	      0.81581799	     15.73472469	      9.55539518	     -6.48502526	     27.85573842	      0.48617435	     -3.51020038	    -15.31423578	     -7.49999987	     32.27161540	    -11.53407582	     -2.67079750	     28.18735952	      0.49196223	    -18.95635731	     -4.70543568	     -7.49999987	    -15.55447606	      8.96527006	      8.27861731	     22.90929415	    -17.20311710	      0.16854025	     24.60163989	     84.45893261	     11.68064511	     -5.98221851	      0.91424509	     13.00231562	     82.35483098
